<mxfile host="app.diagrams.net" modified="2024-04-18T23:40:47.499Z" agent="Mozilla/5.0 (Windows NT 10.0; Win64; x64) AppleWebKit/537.36 (KHTML, like Gecko) Chrome/124.0.0.0 Safari/537.36" etag="XCHJxMKVPSVx1oaW-R_o" version="24.2.5" type="github">
  <diagram name="Strona-1" id="vM6ufsilVKX_vxCot3qm">
    <mxGraphModel dx="1235" dy="671" grid="0" gridSize="10" guides="1" tooltips="1" connect="1" arrows="1" fold="1" page="1" pageScale="1" pageWidth="827" pageHeight="1169" math="0" shadow="0">
      <root>
        <mxCell id="0" />
        <mxCell id="1" parent="0" />
        <mxCell id="t6ijT9f5Qi8HSw9unxHg-5" value="" style="rounded=1;whiteSpace=wrap;html=1;fillColor=#fff2cc;strokeColor=#d6b656;" vertex="1" parent="1">
          <mxGeometry x="270" y="10" width="350" height="80" as="geometry" />
        </mxCell>
        <mxCell id="t6ijT9f5Qi8HSw9unxHg-4" value="" style="shape=image;verticalLabelPosition=bottom;labelBackgroundColor=default;verticalAlign=top;aspect=fixed;imageAspect=0;image=https://static.thenounproject.com/png/3405363-200.png;fillColor=#fff2cc;strokeColor=#d6b656;" vertex="1" parent="1">
          <mxGeometry x="270" y="10" width="80" height="80" as="geometry" />
        </mxCell>
        <mxCell id="t6ijT9f5Qi8HSw9unxHg-9" value="&lt;font style=&quot;font-size: 18px;&quot;&gt;Pasywne zbieranie informacji&lt;/font&gt;" style="text;strokeColor=none;fillColor=none;html=1;fontSize=24;fontStyle=1;verticalAlign=middle;align=center;" vertex="1" parent="1">
          <mxGeometry x="440" y="30" width="100" height="40" as="geometry" />
        </mxCell>
        <mxCell id="t6ijT9f5Qi8HSw9unxHg-12" value="" style="rounded=1;whiteSpace=wrap;html=1;fillColor=#fff2cc;strokeColor=#d6b656;" vertex="1" parent="1">
          <mxGeometry x="270" y="110" width="350" height="80" as="geometry" />
        </mxCell>
        <mxCell id="t6ijT9f5Qi8HSw9unxHg-18" value="" style="rounded=1;whiteSpace=wrap;html=1;fillColor=#fff2cc;strokeColor=#d6b656;" vertex="1" parent="1">
          <mxGeometry x="270" y="210" width="350" height="80" as="geometry" />
        </mxCell>
        <mxCell id="t6ijT9f5Qi8HSw9unxHg-17" value="" style="shape=image;verticalLabelPosition=bottom;labelBackgroundColor=default;verticalAlign=top;aspect=fixed;imageAspect=0;image=data:image/png,iVBORw0KGgoAAAANSUhEUgAAAmMAAAIdCAYAAABx4HrMAAAACXBIWXMAABcSAAAXEgFnn9JSAAAAGXRFWHRTb2Z0d2FyZQBBZG9iZSBJbWFnZVJlYWR5ccllPAAAUg5JREFUeNrs3Q1snNd95/vDV8kmZcmuXDK2ElGmisYvWapxkutECsThBJbSZtcONokvmsbWJnGAbW9buy3SDbAbO9kLZLfY1NpmkwViN3XcTe9V4kWUNE0so5QoxKqNvJW8SWwDleRxI7tiItiSRcYSRXLu8z8zQw+Hz/PM2/M852W+H2BAvZCcec6QnB/P+Z//6SoWi8o3E7n8ePBmR/k2Un67scEPP1r156ny27PBbbry58NHJqcVAABAArp8CWNBALs9eLMvuI03Ebza9XxwK5T/XKj683Q5wKkguE3xZQYAALwNY0EIu78cwrY68HArs26rZtqq/lwIwluBL0sAAAhjLoSw8eDNw46EsFbMlIOaUlUzbeq1pVNm3QAAIIwZC2L3B2/u4+lbcU5Vza6piKXTILydZagAACCMtRvEHg7e3MVT1xY2KQAAQBhrKYjtD978IU9bpqo3KVQvl7JJAQCATgpj5d2SX+cps1r1cumqjQmK5VIAANwNY0EQ21R+Md/IU+aV6k0KUyEhjuVSAID3eh15nPcQxLw0VvXn3RFBvPJHlksBAF6yfmaMWTG0gOVSAABhLMEwJrNiD/BUIUX1dpfSjBcA0NFhTF4Qx3iqYImo5dJKiGO5FADgTxgrL1G+zNMER9GMFwDgfBijnQU6CWeXAkAHsn035Q6eInSQ6h2lt0X8glL5Y72zS2kLAgCOsH1m7GDUixKAhkUtl65qEcJyKQAQxsLC2JSK6D8FIDUslwIAYWwljMkP/K08TYC1wk5RqP4zy6UA4HgYK/IUAd6obgtSUCyXAgBhDIDVWC4FQBgjjAFwBLtLARDGCGMAHEEzXgCEMcIYAIfUO7uUWTcAhDEAsETU2aUrf+bsUgCuhTH5oUZrCwC+YpMCAJq+AoAjombdpirvwKwbQBgjjAGAHao3KayaaasKdMy6AYSxhsLY/uDNH/I0AUCq6rUGYdYNSFGv5Y/Py63lY2NjDb/v3NycOnHiBF+pAFL9sVT15+rViPuqfjmufn9q3YAE2T4zNh68OeL6IA8MDKi//dY3E/lc09MzK38+cfy4Dmvi9OnTwW2WAAfANnV3mCr6uoEwZnUY2xG8+UcfBjr4QWPsvqsD3Mz0a+2Qjh8/sSrMzc7O8h0BwDT6uoEwZmEg86LX2J8/8Odqx44xJx6rBDQJapU/ywxcWLA7Hvz7/Pw830UATGnkNAWWTEEYSyCMyTeR873GPv6nH1d79+7x9gupeplUz7IFt9pgJ2ZmZviuA2BK1EYFlkxhVK8Dj9GLMFYJJ74aHh7Wt5LGZgCP65q30swa9W8AMhC1UaF2EqDyx7glU5ZL0VFhbEp50GusenYIJdu3b1/5cyNLuGtm2SLq31g+BZCQ3XHhrRzani+HM3mtmiKgwdcw5sV0cSUooHWDg4OrQlsjAW7NLFtE/RvLpwBatLV8u60c0CScHQxu+6lVQ6NcqBkbVx60txAmd1SicSyfAkiILHPeT8Nc+BDGNgVvXvZhsL/5t9/QszvwC8unAOr4RnC7h5kyOBvGyoGM9hbwCrtPgY4jbTj2BYHsIEOBWr2OPE6Z6nW+iP+0fsEljKG13adRpy/QvBdwwsbg9vWJXP7fBYHsYYYDLoaxgg9hzPf2FkhXUpsXmH0DjPor2YVJIIOrYcx5MrNxF19zyMjq2Teldu3a2dDXaAWzbwCBDISxVa8RPgw27S1gu3Zm36Jq39h5CoTaHwSyKYr64VIY8+KLlRck+Kbd2rfqnaece4oOIzVkDwe3cYYCTuymFL7sqPyb/+crq5aOAMRrpO8bS6dwGAX9cGZmTEhXY+fPqJQXD8IY0Lhmj82KWjolvMFS96vSDBkIY04o+BDG5Dd7eo0B6Wl26ZTwBsO2TuTy+5gdI4y5Ykp50N6CIn7Az/DGaQtowz7F7BhhzBFeHBhOewugs8JbVM0b4Q1Vdk/k8iPsrCSMOZFjfBhwZsaAztJszVsju01p1Oul24PbfoahM7m0m9KbA8OD3374ygOQzG+p5ZAWdcoCfd6cMRO8NuxgGAhjLgQy2lsAQIvWhDTCm222sVTZmXode7yeHBhOewsA2RscHFy1VFrviCzCW+bGFYX8hDEHFHwIY1IHQnsLAIQ3EMbgahhzHkX8AAhvq0Na5RfVig49HouaMcKYE7zYUVn9wwcACG/lJFL157sif36+1iokqkmvw7NvLJkQxpxQ8GHQT5d/eAAAmlPdKqSR7FI9+yYzb/LzV/5ua1ibyOXHDx+ZnOKZ7ixO7aYsf6F6saOS9hYAYPaXYlkKPfTYIdv6tt0bvD7Qb6zDdDv4mJ/3YeCPlwtbAQDZkx3te/fuUQ/s/3Pdbmjnzp22PLQRnh3CmAsKPgx8peYBAGA+mP3n//vT6tP/+dNqYGDA9MOhiJ8w5oQpHwa+etcQAMA82f354ENfVKOjoyYfxm6eCcKYC7w4MJz2FnBF8eIrauHbd6sLn9+qbxcP7FVLJw8xMPCSzJLJ0qXJGTI5NJxngjBmO9pbABm6FASx5ecefy2cnXlGXfrOx9SlyT9mcOAlabkhgcwglioJY9Yr+DDwtLeAK5ZffCr035eefVRdeuJTDBC8JC007rrrTsIYCGNhfDlEdXZ2lq8+OG9p5kuqeP4UAwEv/dv3/VtTy5WEMcKYE476MPjVx30AturafH18IHvmawwSvCTLle8LAhlhDISxcBTxA1n9kLj27fFh7DmK+eGvPXv3mLjbrYw8YcwFXhTxn6DxKxzQ88b3x/6/FPSzVAlfye5KEw1h5VgkRp8wRhjLAEX8cOKHxOYbVNeGa2Pfh1YX8Fn1AeZZ3i0jTxiznRfLlKdPU8QPR35Q1FmqXH7hKQYJ3tq5y8hRSSOMPGHMar6caM/5lHDmB8W2W+PD2HOP6+awgI9kqXJoaCjru2VmjDDmBOcPDJ+f53xKuKHnuj1K9W+oE8hYqoS/pO9YxjgWiTDmhIIPTwDtLeDMDwuWKtHRYSz78yo5Fokw5kSO8eEJoL0FXNFzXfxSJUX88Nlo9jNjgqVKwpj1Cj48AbS3gDM/LLbV6be0cJ5ABm+ZmBkjjBHGXMCB4UCGutZdobqvuSX2faLOsQRcJ0X8hDEQxtYq+PAEsEwJp35g1FmqXGZmDB4bG8u83xhhjDBmN18ODJ+ZoYAf7tC7KmMUz7+gls88zUDBSwaWKjkWiTDmBC8ODGd2DK7o2rCl7sHhzI7BVyaWKjkWiTDmAi868VM3BpsVL7ysimdPrty6N46U/qN3fSmcBTd1+eaV9186/ne6zYW+MUsGj7CjEmnpdfzxSxH/ba4/CaUzKsf4akT2Fl9Vxbl/0YFLSeiae1EVFy+u/HtoOFv52AuhB4QXX/4ntXDwjrUf2L9BdW++Uf+x6+obVFf/FapLzr1ct1F1X3sLzwWsZ+iMyhFGnjDmQhhz3iwHhiMDlRkuCV3LZ5/TwUsCVbO61l+pui7frIq/PBP9PkHAKl48t/ofF86/ttsybNdlOazpoLZhi/4zIQ22kWORZmczPVeYmTHCmPW8WKaULvx38bWIpMOXzHJJ6Dp7QoevVoJXZNja8PrYMKb6BpSqDWP1VMJaTVDr2nCt7v4vs2gENJgmxyJlHMY4FokwZjc5MHwil3f+SaCAH4mEr0pt15mfJh6+1li3oW4QTOy6zr+glp59dNW/Sb8zCWUS0ghnyDaMjapjx45lep/B69yO4PVumtEnjNlMDgx3evvviRMU8KONAHbmabV8+oeRNV5p0EX7fZcrdemXMT9d1qcWCGUGTc+ifX//6nB23R7VvfkGvjCQGkNF/CPKk7Ic+BvGCsqDXixSxG+owzMIYC3p3rRNLf/ip9GBbf1Vic6QNRzO+jfofmg6nG3bo08OAJJi8Fikg4w+Ycxm8tuC82vqp0/PEsYQHziCAFY8/YPg7TN2PKAgbMWHxpfMPC45I/PZR8tLm39SmjW77lYd0PSMHtAGQz+nxxl5wpjtCj48EXJguKFt07CYngU7/UO1fPpHpfYTFukaGIp/hzRr1poJseVZs8UnPq0b1va88f0EM7RFjkXK+PSUEUbdb90eXIMX6+inaW+B6hA296JaevZravGpP1NLhUnrgpjW06+6rvq1OoHNrtne4plndCi7+MhOdfHAXrU485eqePEVvuDQFBPHIk3k8psYeX8xM2YJuvBDh4WzJ0vhS/qBOUBmx4ov/VP09Sy+au9Yl4OZ3Lq3yTLmrXrWDKjH0FKl1I1NMfp+cn5mzJcDw5kZI4QtTj+ob64EMR3GLvuV+HdotteYIcvPPa4uTf6JuvDgTcHbP+YYJ8TiWCQkrdeT65ADw50u4s+4iSAsCmEuzYSt0Teguq54vSq+8rPo95FzK+MaxNqkqvhf6st6xz7CjkysTUVm6nsJYx7r9uQ6PDkw/DhfkZ0Swi68XKoJc2wmLEzX5VfH/39x2c3n6Mwzerbs4iPv0LNlYedwonONjmZeNzbCqBPGbOdJET+zY95bfFUtF/5eF+bLDkkv1NlVWXz1JbevrzxbJkX/C1+/Qy2dPMTXMUzUjXEsEmHMegUfLuIEM2NekzqkxR98Ti9L+qRycHgs6cbvw3P44lPq0nc+pmfL2InZ2Uw0f5VjkRh5whhhLGUU8ftJliRlOXLpJ39tZ4uKJALZhtfXCWxX+fWcnn+h3CIjCGXfe4AlzA40tsNILiKMEcbsJQeG+xHGWKb0zfKpY2rxB3/hfF1YXRkeHG6VhfNq8fv79RImdWWdZXh4yMTdjjDyfur16FpkD/1Gly+AAn5/lAr0H/U/hJU1dHC45yq7MHve+D7dr0zOxoTPYWxYDQwMqPn5+SzvdpyR91O3R9fifBG/fFPPzc3xVek4OcC7I2bDan+YbNoWH9gGr+mYULZw8A5d7L/8wlN8Q3hse/b9xlimJIwRxrJAJ36HLb6qln7ySOmAakvOZcyUrQeHmwrlLz5FKPM+jGVexL+RY5EIY7bzotcYRfxukpoo2Sm5fOaZjh0DVw4OJ5QhKXTiB2FsrSkfLmKWMObei60u0v+ctzslG9bAweHqsqs69+ukHMoo9PeHoTMqxxl5wpjNCj5cBMuUDpFlyWe/ppaOf4uxKKs7O7a81PFjVGkgSyhzn6FjkUYYecKYtTgwHFkHMekd5k0X/aTCmCcHh2cZynSfMprHOsvAsUgsUxLGrDfj+gWcOMHMmO2kPuzSU38WvP0XBqOWHBy+Pr6+uKt/A+NUnet1n7JSR3+4x0AR/xij7p9ez66n4MMXqsyOGapFQB1ypJEsTXZiMXrX4OuCnxiX6bAlRyBpg9eorqqjjuR9LgV/X5r5UvQnumKLWnf7V1UxGMtVY/vCk6Wwu/CKKv6i9H9SZ9URpHnsE58Oxu0vVe+u+1TPdXv4ZnOEiZ/VE7n8uC/NzuFnGJP2Fre5H8ZmCWM2BrHTPyy1rfA9dG26rhS4JGhJAJOzJyvhqwHS8DQujBVlx2kQuGqbosY1SZVdiMWL53SAk0BcPP+z0ufxjByzJGdfLl1zi+p712dLzXRhNX0s0pcfyfpuRxh5wpjNCj5cxMz0tKnCUESFgcLfe3fAtw5eErQ2bSsFsCB4JdGYtXvzDUrJUuTC+Zhw9aQObQ1/zkpQq5kx0sHszE9Lb3/xtDczaXIdUk/WM/Zh1fvWe1XXuiv4JrSUiQPDFXVjhDHCWProwm8XWZb0plC/d70OSzp86RmwK1O5G1lmi5tFXDr5eFNhLDb4BbeeVUHvKR32JKDppc+YUGj9197Ml9TSM19Tfe+8L5HxQvIGBwdNHItEGCOM2UvW0Cdyeeevg/YWBLEk6dmvILB0D785syOJurfdGhvGlp97XO8gTGPGR2bRqpc8dSg7eagU0lycOQvC5KXJPwlC2aOqNwhlOoDCKnIs0sxMpvvHCGOEMetxYDgIYjIDNnxzpgGsmsyMXarzPnqpMoNCdQkvlQAjAVDPmgVhcCkIaC7NmummsQfezdKlhaSsJOMwJscijfjS0gn+tbYQXhwYDoJYa8HjetVz04dUn+zI2/4eo4dzy+xYbLgIAlHWJMBIAOzLf1atv/snqv/2AzrcdG241p2vzZkvBaFsbylMwgpDZjZcMTtGGCOMpX4R0zN8dRLEGiOzYFt2qt5bPh4EsTutWcbquS4+jNkQJmQ5U4Lrujv/QfXf8R3V88b3lTYfWK6y63Lh23fTxd8CFPGDMLYWB4ajM4JYEMJ6RvKqT0KYzIKlVIzf8g+XbXWWIBfOW3VwtoTYyoxZ37u/WHdmzwYyu3jx/91Lw1jjYYwDw0EYqzXlw0VwYLiBF7bTP3QjiFWFsO6Rd+lGrDaSJcGuzdfHh9/n7Fxqk6XM/t98UK376I9V765P2r2MWW4Yu/D1O5glM4hjkUAYW82LmTGWKbMPYtY3dHUkhK0KNXXaMSxbXvckgbJ37COlZUypL5NlTFu/hqU3GbNkxhhYqtzKqPujq1gsendRE7m88xclv2U9+NAX+QrNgJw1ufiDz9n9W9Pm61X39n9t3VKkHr+zJ1e/vfBycCv9TlT85axa/qe/DcZ47Uxv1+VXBxfWVzpcvG9AqSD4VOrduq7Yoro2vL781q4u9DL7JL2/dOixdDdmNx38M/e/H/3f6vOf/0LWd5vjWCQ/9Hp6XTKt5HQLew4Mz+iFNQgOi9MP2vvbUhC+ZDZGGrTaMFb6cPQgvC6ffU4pHbperv+By4vhn++Xvyj94dK8PupIv2vEDktZJpRwJgX3laAWd3xSqs9JEHB633avvkmN4eL3HtAF9TapzJLpxzn2Eb7Rs/gF2lzdGGGMMGYtL5Yqpd+YocLQzrD4qlr6yV9be+i37JCUZUlTy5EyY1gMQlfx7IlS+GpxnLqueEMQvM7EXGhP/ccShB251TZtlZq07s03lhu9vj3zmSBZhtVncQahTJqyWtVUtlxLJpskZGMCfcnSxY5KEMbWkt8Udrt+EXNz9BtL09Lxb5VmeixjcjasctajDmGNzHo1YmAoPmi9+lLrgfHMM2pJbpV6v/4NOpRJOJMi/KzCWSWUSfCRmTKbQpnecfnIO3Qgy6LJbqeSY5GGhobU7Oxslnc7wsgTxmxW8OEiODA8xReoU8es3DkpHfOlTUWWs2HVh22nMUuo69z6Llfq0i9jfhKtT+a+pV1GED7kJrNCsrypw9m2W7Pp9h+EwP73HrAvlMmRSt/5mFoe+7Duq4Z0DA8PZx3GdjPqfuj29Lq8CGP0Gks3jNlGZsP07sMMgpjMesnM4OJTf6aXanUwTXG5tvuqX68T2K5K5zrPv6BnzSSIXPj8Vt0kVZYU5VikLEKZ7MC0qS2GdO+/eGBvKXgjcSZ+eZ7I5VmqJIxZy4su/KdPz/IVmlbwuel3VNfg6+x4ML3rVe9bfl+fJZl6CDt7Mghfj+gQJoE0saXIetbFd7WX+rRMQvhzj+tDty8+9KZMgpmEMmmL0Zf/b9aEMlnaXfj6BzhOKQWGivhHGHnCmJUOH5mUAv5zrl8HB4anR85s7N1xt24ZYfZxvE73DUv7DEnpoyYBTHaOLgcvxplf5+W/at3XwJpglmI4kRlPCWW9b73HjuOWFs6rrnUb+UGQMIr4QRhby4sDw+fm5vgqTUvvZfosR71j0cQ3XxAEJRCmuSxZCWGyVJfZLFhoGulX3VffWDcgGw1mspT54E3q0hOfSm0ZT1pNSCgz3TxW+pCZag3is2EzB4aPM/KEMZsVfLiI48fpN5b6N8HIu4JQ9qFSEXlW9ymF+kEQTCuIyXKkFSGsWp26sOKFl8w/xoXzuq5q4cC7dW1VGsuY0mJCdjbKweQSikyQhrBIx9hY5nVjzIwRxghjaTvBUmU23wibb9CzVFnUkekgVueYoJZDmJwmMP2gvlkTwioh5LI6RfqW9XuT2iq9jPnIO/RsWdLnPsrXnBT5Sz1ZlkuXum0KnflTY2CpcuNELr+JkSeM2WrKh4tgmTLDsJBBHVlqQUwa2MruyB98buVYIuv0DdQvYr/sKvsed3m27OIjO3VtmbStSDYcvT+7pcsg9PXS2iJVhpYqmR0jjFmLA8PRvBTryNIKYlLfJCHMxnYdawLvpm11LmbJ6scvtWULB+9QC1+/Qy9hJjYulaXLlFthyNFIdOJPl6EdleOMPGHMSoePTHrS3oJeY0a+MRKuI5PZtsSDmD7O6RHdJ8y2JclI9ZbjLrqxCVqauVaWMJMMZbo/2R2PqZ6xDycfhIOQJxsIkC5DjbpHGHnCmM2cn1bKuJszVgWoZOrI5OOTDmK6QF9mwwy0qWhrLNZfqbou3xz/Pg61XJCmskmHMj1Ltus+XeCf5CwZy5PZGR3NvG6MZUrCmNW8OTAchsJDu3Vk0tA14fYVy4W/t7JAv+ExveINdX4q9Th3TWmEMl3gn9Asmeza5FzK7BioG+PcPMKY1aZ8uAg68RtWqSOTMyOb/dAkg9jiqzqELRUm3R5POasyLti8+pKzl5Z0KFuZJbv9QFs7LlmezJaJ5q8Tufw4I08Ys1XBh4ugvYUl3yxbdpbDVWN1ZBLekmpkqltW2LxTspmAMTBUOjg8Nj2sd/oaV4WyBDr7V45VkgPPmyW7NGnwmq2xHUZWDUcYecIYYSxFNH61KEhsuk71vuUP6taRyftJeEuC7qLv8LJk6A8eQweHGwll3/mY3n3ZbksMmSXr/80HVe+uTzb+QdLKglmxzA0PD5m4W+rGCGPW8mJHJb3GLAtk668s1ZENvzn8HaRO7KbfSSyISRd92xqits2Sg8OzIrsvdUuMb9/ddvNYaU/RaHG/bmVBg1cDYWxYDQwMEMZAGBPlA8OdNzNDrzHrSB3ZG98fWkem/y2BOjGpOdJBzMdAa+HB4ZmEsuce181jF7/3QFvHLFWK++OOU5Kw1hOEMZixPft+Y7sZdcKYzY76cBH0G7P0G6imjkwvTw7fnEgQWz79I38HzvKDw9O2+P39aqF89mXLgVaWLd97IHK3pSxP0uDVHBP9xiZy+RFGnjBmq4IfYYwdlbaqriNLonO/90GswoWDw1NUKfLX9WRnnm7588huy9rzLbvSaDKMpgxxLBIIY/6FMXZUWh7IpI5MAlkQzAhiDY6ZYweHp0XXkx14d1tLlxK8+t/71ZVA1rfrfr4pDTPR3oIwRhizGcciwQmdFMRKicHRg8NTUlm6bHXXpa4jCwJZ71vvoZWFFWHMyBmVhDHCmLUKPlwE7S0IYj5y/eDwpMnSpey6vDT5xy3NkukjvGhlYQ2ORQJhrMyXA8M5Eslf0r6iE4OY5snB4cmH80cTaxgLcwwsVW6dyOU3MfKEMVs97/oFzM/P89XqYxA787S37SsaoQ8OX79J70aVfli1N7Vuo+pq4xggpy2cLzWMld5kbbTBgMkwxlIlGtPbIddZkN8YXL+I6ekZI9ulkQ5pbJrUodJ2/5RZr9tUdMuSZO9lK6cXVDY7XAr+f2nmS9HNUDdfr9bf8dhKeFVBMCme/5kqvnJKf4y8lSJ4bwO77k32DtX/mw9RC+aYUXNhbIrRJ4zZSL4wnW+IVyriJ4x5YfFVPzvrl0OWDl5VASxOz7Y9OoxFhtYzz+iZIemZJTVRJWtDiQSz5V/8NHj/p3UR/PKZn+rZJS8E1yG1ZNJTTFpZwA3sqARhbDUvOvHPsqPSG0vHv6WKc//iyU+R9TokdW2+saHwVUvP9shSZExwWn7uUN2+WbKs2SNLm9ftee3jdDB7shTOgreuhzMJrXIdffk/rwqmsNXg4KAaGhpSs7OZ9okkjBHGrOVJET87Kr2w+GpbTT6tC2AJhIKeIEDF1c4tnXy8pSam8tj04ysfCyShbCkIdhJoZMbNRfK4F77+gSCQfVaPG+wmdWMZhzGWTxzUKQX89BqDRUHmslVHKLlEnzLwxvepvls+rsNRUrMz3dtujf1/qZtK5H6uvUUv86274zG17s5jqnfXJ3W3eid/eNc5Tgq2hLHslyoncnlmxwhj9vHlwPATJ5gZ84UUtFeOUHLiB0UQWCRAymPWZ28mcBD66pD09rrvk3SbB1nW7B37yOpgVq8JrS15PnjcercprDfKjkoQxlbx4sBw+o15FMjkCKUg4LR7hFLqIUxmwW66M9XHqYvzM5odiw1md/6D6r/jO3r2T9naUiN4XD3lZVfYjyJ+EMZWK/hwEXNz9BvzSnnJsnv4zXYFRTn8PHhcOoQFoTELPdfFh7GsGqDK0qvUY0kwkwO4bZst63vnfTq8wg3DHBgOwph/YWxmepqvWg9J/VXPSN58CAuCV89NHzIyY1d3qXLhfKYbHyTwyPOiZ8tuP1B35i6Tx7T5+pY2MsCssbHMa+oJY4Qxa1HED7u/GUfeVVoeM3X/W3aq3rf8vrGWCbrrfp1ielNNcqXwv/83H9S1ZSafo75d9/ON4iADS5UbJ3L5EUaeMGYjL4r4T5+e5avW52/I4Zt1IMpyp2Wldq1n+3sSL8xvVr1Zn2XDZzVKYNRLmB/9sep96z2Z1pV1X3MLHfgdRRE/6umUPmOyo3Iq+E3B+euYmZnhq9ZzeqdlEI6WfvK/VPHCyymHvzdnHsL0NQW3ylv9b3MvquLiRVV85Z/19auuiN8Ti4tq4Zu/U9rRKXRX/hvLb7Ob0ZMlzN633asL6Zdm/lItBre0G8r2veuzfHM4ymDd2EFGnzBmIzkw3PkzKufm5nRnZ3geyN7y+2px+sF0OvX3rtchbCXUpBW8zp7Uj1+HLf22gWtZXlDFX56J/v9Lr6rFn303fNw2XBvcXq9nkLqu2JJYU9qGQ9n396dyP7I0SisLdxk6U5iZMcKYtQo+hDHpxM+B4Z3w3VnaaSlHJy2f/lGiQUwX6MsMVNLhS0LX2ed0ob0EsZYCzhVviA9j3T3R93/+BX1bdXB4/wY9eyYBTTYJpLHUtxLKrn+/WvzeA7GnCTQtePy9nEfpvNHR0ax7RRLGCGPWkiJ+5w8MP3H8OGGsgwKZrqMK3i6fOtZ+aBh8Xbn7f3LLkrLcKI9NDuhOZFm1TiuN4qsvNff5ZBdmEM50QCvPXMnOSAllcpxQkjNOlZoymSlb/O6nVofCVr8EpMErrSycJ0X8GYexrYy6O7o77HoLPlwEOyo7jywptruLr9JFP6kgtnz6h3oZdfGpPyuFsYTq27oGhpTqu7xOQmlvg4M0kF184tPq4iM71cUDe3XNV/H8qeR+sG6+QfW/94Dqe/cX2+pTJh9Lg1c/mKgbm8jlxxl5wpiNODAc7n6zDt+se4C1EkR0of5Nd7YfxOSQ8yB4SQCTpbhWlyLrPt6rfj0+pKy/KrH7koO3q4OZtM8oXnwlmRB93R7dp6zVnZey9MmsmB/GdhhZNWSpkjBmpYIPF8HMWAd/w26+oelDxnUQS6BRqJ4J+8HndA1b2rs81br44CK1aWmQYHZp8k/UxYfeFLz9Y7X8wlOJfF4JVev+z8d0e4pG0eDVLxyLBMJY2eEjk16EsdlZeo11Mim877vl4w0dMp5EEJPZr8Uf/EVpJiztEFa5xst/1fg4y/UuHLxjZbas7WvasGVl6bKRWTIavPpFdsAPDQ1lfbcjjDxhzFZeHBg+PU2/sY5W3mkZd2SR/F9bQWzxVT0Lllp7jTg9/ar76hvrhtIsrMyWPfIOvVOy3SXMytJl3PFKNHj1k4G6sd2MOmHMVl504pdeYyCQRR0yrndN3vQ7rQeQuRd1CEtiB2fL6u2qvPBSpg9HWmZIH7EkQpnUgcnxSlGzZDR49ZOJXfATuTxLlYQxK3lRxC/tLQChDxmXLvorIW19udC/tWL9yi7JzGfDagPLZb8S/w6LF8w8sIXzq0JZW89dyCxZz9iHafDqKY5FAmHMszDGjkqs+kbesnOl9UVvEMS66swqRQaxwt+XGpaaCjrV+gbqt4W47Cpzj68qlLVTU1aZJevd9clSg9e33ssXtKcMFfGPMPL26+3Aa/bkwHB2VKImkA3fXDr6p8UZMQkUiXb6T4Duxn/+hZj0uGT8Mcrjk5qypWceVb3vvK/l45ekuWsvPcW8ZuiMynFG3oGf3512wXJguA/XkXEnZzjz65U/QUxbvyn+/y+es+ahSrf9hQPvVpee+FRifcrgn7GxzOvGWKYkjFnreR8ugtkxJBIiTh2zM4gppZdbuy7fHP8+6zZa9ZiXZr4UhLK9ifUog18MLFVunMjlRxh5wpiNCn6EMfqNoc0gduZp3b7CZnHtO7S+y6x7zLJ0KT3KmCVDLUNF/IQxwpiVvCjin5me5isYrQeGCy8n0sw0dXVOGyjO2TtDvDJLFoReQFA3BsLYayjiR8ezZtdkHbrNQ8oHh6caemWW7MC79WHkgIleY4q6McKYpab8CGMsU6I10kssrUO+U/lBleHB4WmRw8jlvEuWLTE6mnndGGGMMGalgg8XcZzGr2g1jBUm3XrA/YOx/511N/5WyWzkpW/fzRdghzNQxL91IpffxMgTxqziy4Hh8/PzHIuElvS+5fcbOmjcFl0DdQ5YdmC5deWHLmdOdjxDdWPMjhHGrOTFSdt04kdraax80Lgrgcyig8Pb0r9B9dDYteON7TCSiwhjhDErFXy4CM6oRLuBLOygcSvVOzj80rz1l9D3zvv08UfobIaORSKMEcas5EVfCJYp0W4gk4PGXQhkdQ8Ot6gbf+jj33CtHmtgcHBQDQ0NEcZAGFOezIxNT8/wVYy2SUjoGcnb/SBtPzi8Xu7ddR9faFhhoG5sjFEnjBHGUkKvMST2w2DkXUEoe5/Vj7FeGOsqWjq219yieq7bwxcZVpjoNzaRyzM7Zusva5164XJgePCF6fx1zM7SawwJhobhm/VbfUSS4R2KsrmgdLumtNGgd70qXjirG6hGkRYXfbf+D1X85c9V8fwpVfzF0/oAb+M/aN92L19cWMXQsUgSxji6hTBmHSky2ej6RchSpaGuzvA0kEn4WZx+MNtAFoSt7s036LMo5a3Us60NaNfo2THpah8ZyIIg1luzY1GOI1p+4Ul9ePfyc49nO57bbqWdBdagiB+EsaocE9x2u34RFPEjaRJ6ZKdlFoFMh6/hN6/MytUNN9ft0Wc+Rlk+GYStmjAm4U4HvPK/L508pEOZvFUL51O9PtlBCdSi1xhW/YwijLmP9hZIK5D13fLx1HqRSQiTwFdqr3Fzwx8n9VdxZFmy3pFDUr/Vl/+sWn/3T4K3/63u52yV1ODpszWBEGNjma9oEMYIY1by4sBwGr8iNSk0h5XPVQlhEsiaDjhSCN+/IT6QPXeoicD0ftX/3gNq3Z3HVM/Yh+t+7oYFn4cdlIhjYKly40QuP8LIE8ZsM+XDRbCjElkEsrZ7kfWuVz3b36N63/IHLYWwNYEsxtLJ5uvCZAarLwhP6+78B9X71nvaDmVSt0aDV8QxWMQPwphVvJgZO3GCmTGkH8jaaQ6rZ8OCENa9ZWcyP7jqFMRLsX6rJEDJ7se2QhnHHqEB1I2BMKZ0ewtvtvgyO4YstNIcVgKcng2rc5xRU59zW52eXQvnS8X5bVgTyprAsUdoKBWZ2QVPGCOMWcmLFvanT9NvDBn90GiiOawsS6ZxBJAEHWkZESepFhavhbJjDRX6c+wRmjE6mnndGGGMMGYlL5YqZ6bp44cMf3AM31wKZL3ro4NY8P9JLUuGPoYUlyrDQ9YWXejf9+4vxi5dUrSPZhgo4t86kctvYuQJY7aZ8uEiWKaEiUAmhf1hgUwHsSbaVbSiXhG/NIaVZq9p3K8sXYbNDnLsEZpF3RgIYyUFP8IYy5TIXqU5bHUgk9mwtIOYvu8NW1TX5utj32fp2a+lc9/rrtB9ympnyTj2CM0a22EkFxHGLNPLEPgRxo7T+BUGA5k0h9Xd+mXX5fb3pH6fxQsvq+LZk6r7yl9Ty8GfVVfNj7LicvBv3Wr5xCFVlBYTKTVelVmw7mvfrhYOfkB1b76RY4/QNI5FAmGsxItiq/n5eX0s0uDgIM8oDPwkKfUiS9vy6R8Gtx/pIFbKXJdUcS5+if7iIzv1DJqEpt4UgpnMkq2747G6Xf+BMPIze2hoSM3OZrq6QRizTMcvUx4+MikF/Od8uBY68cN0IAs73DsJEr4Wf/AXaunZR1eCmA5C669UXZdvrhOWNqrimWf0eZYSzBa+foc+MDxptLJAq7Zn3/x1jFEnjNmIMyoBSy2fOqaXQItz/xIegup18+9bHRDl7MqFg3ekFsqA5sNY9kuVE7k8s2OEMesUfLgIWaYEfCIF+EvHvxX/TjHtNUTUMuZKKPv23SwxwiiORQJhzKMwNj09wzMJb8iMmNSH1aNrwPoubzmwSXPYi4+8o+2O/UCrKOIHYaxkyoeLoNcYfFGce7H+jFj1D7Krfj0+sK2/Kv4TLJxXl77zMXXpiU8x+Mic9BobGBggjBHGOp4XXfgz3o0DpGbp+N819wH98buIixdeaux+Z76ka8lYtkTWDBTx72bUCWNW8enAcPqNwXWyW7J6x2QjugaG4t9h8ULDn6tUS/YBAhkyDmNGivhHGHnCmG2e9+Ei6MQP1y2feqL5D+rpV91X31gnsDV+7Iy0wiCQIUsU8RPGUFLw4SJobwHnw1gQhFqy/sr4gLX4alOfjkCGLFHETxhDyZQPF0HjV7is2eXJal2X/Ur8O1xsvrezBLJL376bJwYZhDEjM2PjjDxhzDZeFPHTawxOh7GIxq4N6RtQXRuujX+fOt36w0gN2eL3HuDJQerGxjJvjD/CqBPGbONFEf/MDL3G4LAmlxJrdV3xhvj/lwPEW3lY399Pt36kbnh4KOu73DqRy29i5AljhLEU0G8Mrio2sesx1Pr415Xiqy+1/KkvTf4R9WNI1XaK+Aljna58YLgnYYwdlXA0jLWzTKkaPzi8pcd2/gW1+H2WK5GeUerGCGPQjvpwETPT0zyTcPMH0qZtbX+O+geHt97pXJrCFs+f4olCKnbsGDNyt4w8Ycw2BR8ugiJ+dLS6B4e/2Nanp5gfaRoayrxubIRRJ4wRxlJAewu4G6Qua/tTtHtweD1Lzz7K7BhSY6BubIxRJ4zZxov1PY5Egqu6Bl+XzA+2OsuddQ8Or2Nx5i95spBSGDNyLNI4I08Ys0nBh4uYn59nqRJuhrF69V6NqhO2Gj04PMrSM1/jyUIqxnYYKeGibowwZg+/DgxnqRKdG8iSPDg81MJ5tXTyEE8WEmfoWKQRRp4wZhtPDgyn1xgc/aG0+Yb2P0lPv+q66tfqBLbhtu5COvMDSRscHFQDAwNZ3y0zY4Qx6xR8uIhZwhgc1ZVEGFP1Z8eKbXb7X37hSZ4spMJAEf9uRp0wZhsvliqnpzkWCY6GsfVXqu7N17f/eVI4OHxVmDvzDE8WUmGi39hELs/sGGHMKgUfLoJlSjj9g2nLrvY/iRwcfsXr49+nhYPDqy2feZonC4kz1Il/hJEnjNnEi5mx2VmORIK7pIg/kUL+y6+O//8WDw5fwVmVSIGhIn5mxghjVin4ciH0G4PLekby7X+SenVjr77EQMM6w8PDJu52nJEnjFnj8JFJb8IYB4bDZTIz1r1lZ3ufI8WDw4E0jY1lXjfGzBhhzDpeHBh+gpkxOE7PjrVxdJEOWxvq1I31DTDQsI6BpcqNE7n8CCNPGLPJWR8ugsavcF7vZar3pg+19znWbYj973YPDgfSQBE/YQyeFPFzJBJ8IMuV7dSPpXlweFI90YBahor4xxl5whhhLGEzM/Qagyc/qEbepbqH39z6x6dwcHjXhmtV17oreHKQUhgzMjNG3RhhzCpnfbkQ+o3BFz3b36O6Bl/X2gencHB497Vv50lBqkZHM58dI4wRxuxx+MjklD9hjB2V8ITUj+24u6VAlsbB4T1vfD/PCVJlYKlyK6NOGLONFweGs6MSXgayZhvCJnxwePc1t6jua2/h+UDKYSz7pcqJXH6ckSeM2aTgw0WwTAlfA1mzNWRJHhze+7Z7eR6QulHqxghj8KOIn/YW8JUsE/a88X0N74RM6uDwnrEPMyuGbFKRgQPDCWOEMdt40muMZUp4/ANs+ObG68gaODi8Xjf+rs3Xq963MiuG7AwNDRHGCGMdbcqHi5ifn+eZhNe6Bq9RvW/5A73bst4sWb2Dw1V3T2wQ67/9q7SzQKYM1I2NMeqEMZsUfLmQ6Wn6jaEDfpht2an6bvl4/BFKLR4cLkuTBDGYCWPZN3+dyOWZHSOM2cGvA8Mp4keH6L1MN4jVoUz6kq2/ctV/67830Y1fdk32335A9e26jyAGI8Z2GMlFhLGsf3QxBLFkSsn5KdtZwhg6MZRt2alvcvZk8czTavnsc6p49qTqvurX1fLsP0Z+aNdlV6vua/8PvUGAQn2YZuhYJMIYYcwqBR/CmCxT3sVziQ4lNWVyqywDLE4/pMOYLtbvLx0iXvzlL5Raulj68/mfqd5d32YmDFYYHBxUAwMDWdf/EsYyxjJlnRzjw0VwYDhQ9Rvojo+WQtfFc0HwOqVvlSBWsfzCkwwUrGGgiH83o04Ys0nBh4s4cYJeY8CqH3zbbo39/+XnHmeQYA0T/cYmcvkRRp4wRhhLGP3GgNf0XBcfxpZOHmKQYA068RPGOppPB4bPzdFvDFj5wbdtT/w7LJxXyy88xUDBChTxE8ag1DkfLmJmeppnEiiT4nxp4hpn6Tlmx2CH4eFhE3c7zsgTxmziRYqh1xiwmrSuiLPMUiUsMjaWed3YCKNOGCOMJR7GZnkmgeowdl38UmXx/Atq+czTDBSsYGCpcutELr+JkSeM2cKLA8NnZjgSCajWtWFLcLs29n1ocQFbUMRPGOt0U75cCP3GgJofgHVmx5ae/RqDBCsYKuIfZ+QJY7Y468uFHD9OvzGgWr26seKZZ0pNYQHjYYyZMcJYBzt8ZNKbbYgn6DUGrP4BuPmGlSORorBUCVtQxE8Y63ReFFyxTAmsVa+Qf+kk3fhhh+HhoczzH6NOGLOJF0uVcmA4gNV633Zv/OzYxVcYJFjBxFLlRC4/zsgTxmwx5cNF0GsMWEt2VfblPxsZyLqvvYVBghXYUUkY63QFHy5idpZeY0AYWarsf+9XVfc1q4OX/L1n7CMMEKxg4sBwwlg2ehmCzgljQpYqDX1DA3b/Zrr5hiCQHdC7J4uvnFJq3RWlAn/AIqOjo+rEiUx3xo8w6oQxazKMLxdCET8Qr9QMdgsDAStJv7GMw9huRj2DXwYZgvoOH5mUAn4vDgynvQUAuMvEoeETuTxLlYQxa3gxO0bjVwBw19gOI7mIMEYYs0bBh4tgmRIA3GXoWKQRRp4wRhhLEAeGA4C7BgcH1dBQ5s1fxxl5wpgtpny5EPqNAYC7DDR/ZZmSMGYNbw4MP32afmMA4G4Yy3ypcuNELj/CyBPGjOPAcACADSjiJ4x1uud9uAiWKQHAXQYODCeMEcasUvDhImhvAQAuh7FhNTAwQBgjjHWsKT/CGMuUAOAyivgJY53MiyL++fl5nkkAcJiBM4a3TuTymxh5wpgNvCnilwPDAQBuGs1+ZkxnQEaeMEYYSxBF/ADgLkOd+McZecKYceUDw70wSxgDAGeZODBccSwSYcwiR324CHZUAoDbxsYyrxtjmZIwZo2CDxfBMiUAuM3AUuUYo04YI4wl6MQJZsYAwGUmivgncvlxRp4wZgOK+AEAxhkq4mepkjBmhYI/YYwDwwHA3TBmpL3FCCNPGDPOpwPDZ6aneUIBwGEU8RPGOpkXB4bPzc3xTAKAwwwcGr6bUSeM2aLgw0XQ3gIA3LbdTBE/s2OEMSt4sb7HgeEA4DaORSKMdbKCDxfBgeEA4DYDB4aLEUaeMGYDDgwHOkTxlX9Wi0/+F3Vp6hNq6ad/w4DAOqOjmbe4GGfUk9XLELSk4MuFlHqN0VQZiLLwjQ/qQCaWgtvyL36s+sY/w8DAGtJvLONG3ixTJoyZsRYcPjLpTRjjwHAg2vLPnlgJYhUyOyYzZYA9YSzzurGNE7n8CCNPGLMBB4ajZfICLy/0iz/6n/rFPexFH/aS56148RwDASuM0vzVeSxTtu6sDxfBkUgZBrDgxVuCl9yiglfXFW9QPTf+tr51rdvIoJm2Pvo5kADds/23GCMYZ+hYpPHgNsXoJ4OZsdZ5UcTPgeHZkDqjS9/4oF7eipsBqxSLL/z1O/XsCwz/gLz6TTogRz1XgA0GBwfV0FDmzV+pGyOMEcaSxOxYuuRFW4KYBLKGP+biuVIo++p7WA4zLKpYX4IaYAsDdWOEMcKYFc76ciEcGJ4uaYnQaqCqzKjB4A/J1+/Sgax62ViWJ+XfAXvCWOZLlVsncvlNjDxhzKjDRyanfLkWDgxPj9QVya0dUj8Gs+Q56P/Qd1X/v/mKvvXt+QKDAquM7TAyUcXsGGHMChwYjvgwdqq9IFYp6Id5MjMms2HMiMFGhor4CWMJYTdlewrBbavrF0F7ixTDWESdmLyw9779P6wKWlJbtnT879RSVdsEghiARlSK+GdnMy07IYwRxqwg63u73Q9jHBieWhiLWKKUZa7aGRaZBet987/XAexSues7YQzNkBC/HAT66hpFPaO3/bdCW6XI+xV/XvqFoetX30Q7FccNDw8TxghjHcmLIn4ODM+W7MKLW+qSF8S+276iX1R5cfRXpd+czJ5KENdL0hKaIlpp1COtUCJPBpj6hA72Evbl84e9r/yCQN80t8mh4TMzmZ43zFl6hDErTAW3+3y4EDkwXL6RkSx54VvTj2p9/YAlIYxZMbsCkF5GltMSqpaeJVjLcnMtvXHj1BOr3lfeT95fZqOiWp1IQNKzoxKamgjijRxirh97EPB7xz9T+mXgyZrrk8dDGHOaiU78E7n8uE8b2ghjbir4ciEcGJ5SGNv4Bm+ag1Zq2mrpovaEem61E5ZSD0DB/9U24pX7DAtjuk9c7ftueUI/lkuHfje255x8nHzevr1faOi6K0dqNfQcyjgE9x+2G1Qvqb+d71mXGSriH2HkCWNGyYHhwW8FXlwLB4ano3vLrjV1Y/ocyuBFMYslyFUBSuqIgvuMqyGKCjmL//g/o1t0PFmud5MNCTEzK2mHpbQDkB634HPVfh75e20YDVuGlpmnRludyOdcCMaj/wPfqnvNSy2c1LA49Yk1s7Zyn1l9XSIdUjM2MDCQdekJdWNJvFYwBG2b8eEi2FGZjqgX9uWQGaakQ9jCNz+oLsqxSkGY0bdynZAsaV186F+VmtHWmbXTpwAEn6degNCnDASBRz5nvbBUCSTVwaSRsFTZ1BD5wyyhABTXoDfsPsI+dyW4hYXRZp5DGZc4eiaxhYbCunA/ZCzb7YkH8+jETxjrVAUfLoIjkdLREzEDJSGnmeORmqFDxVffU/eFVV7IL8acganDW5OzLvI5owJZ2mEpiwAUFq6LUe1LfvVNawJQo8uJ1Y9/KSa4x11bZXeunB4gM5CV4v161w+3Gaj93c2oE8ZswIHhiP8mC1m6qyzLLSU8Q1Y5B7OZ2ZLKbFnt51lq8aByCRxhIS6TsJRyAGp0Zky/b0gd3aqWE+Wl3ZWgFLE8GLlDUj7fz38c+ThlibPSy04+v/x53Ye+G1rj1ki4gxsMFfEzO0YYM67gy4UwO5YOeSEMfSEtF1PLMmBSoazVczBrdwlKUAgLkZVdnpUQIX8OCxHVjWszDUspB6DKpoLazx82yxnXvkQepw5LEpLKQUmOWwp9/LKhISLwhY6xtEbZ84XIa6vMlkWNLdxGET9hjDDmfBjjwPA01DvSSF4AJZRVlgxbXSqKe9Gu+4MgZEekvGBXP25ZcpXAoJe9yiFC/iz/Vnt9USEr7bCURQAKXW4NmaEKC24rYxlybTpE7Q0PUUsnGg/rUQG59n2iZsgIZG6TIn4DmBkjjJnFgeFoRGXXYL0wJSFDQpnUfDVbnB03u1apH6oEndqQ0Psb4bN3lUAmQSxqtkWHiJrgph9PyFJl2mEpiwAU9nii6v+irjdq16kO7iEzqc1s+JAdvA19TQb3E7rsmlItI7IzNpZ53dg4o04Ys8E5Hy6CA8PTo8+izH2m8XYSwQuiLDkuxBTYr/mYU0/Eh5zybJPc5O+V8FTv8Gs9ExaxrFUbOKuvL2x2LJOwlHIAql1q1e8bMZvUSjf9sFlUvRSawoxVzw2/3fDXEdxhYKmSmTHCmBW8mFKivUXK32xBKJJjjpp5gdbtIMrtJerNkhXP/XNoCNT3GRZyKrvsImbFat+/kfeprTMLe2FPPSylHIDkeawdD5mpC1tejgu5ceMYNhahdWltNtsNa6jLMqX7DBTxb5zI5UcYecIYYSwBFPBnE8iqZ6UaJS+QMksWt4QUGgbqNHeNWqpq+fpqlsiilhJTDUspB6Co+2g0uEU9V3HjqD8m5LHICQ/Nfu5GQjBLlW6jiJ8w1qm8ODB8dpYC/ixUZqX6/81XmgoOevflY7/bVB1ZUscU1b7YVxrIyoydbi770L9SFz6/dU3bibCdhlnMFqUZgPTjiahjazi4/Tw+7DTcXLaJxxE5tiHhmNkx18PYdhN3O87IE8ZMm/LlQuTAcGT0zSe9oIJAVun91EhwaqQre70X2lbJBgHZWLDS1b+qm35cQKx9Yc8iLKUZgJp939DAVGfmqdEWGmGPo9k2Kc00soU7DBTxUzdGGDPurC8XQhF/9io7HWX5spElTN1nK6xtRILLjbVkM0G9I4siA2SDPbiSDEtpBqCoQFk52zHsfRt93M1er34ctY+5jRYnzTw+2I0ifsJYxzl8ZNKbnhAnjh/nCTX5DSlF/uOf0bNlcaEsqsP9mgCSwPE2MgvWbGPWei/sWYSltALQyuNpcFdlVPuIesvN3Q0uQYYt38rB7u2IGle4w0AR/9aJXH4TI08YM40Dw5EYCR0SyqJ6e+njimqWo5KoHwr7+EZba+iu/SHNY0OX11IOS2kHIP2+7S6b1rneRj8mLLTL+zX6vEVdX7HOTKV8/TXbpLjZj2nlPlBiqIif2THCmHFeLFWyTGkXmfWI6vFV2zYiifqhZj5e7k/C4rqP/n9q/e89r2fzpAZO+oLVe2HPJCylGICaDZTNBLfqcBu2BFl7vVEnPDQ6oxnVry1uZqyybF1pUhx3fmarH9PKfaA6jBkp4ieMEcaMm/LhImZmKOC3MZCFhoSaoJRW/VCYym7QnpDWGWEhotGzGxMNSykGoLhA2XBwa2AZsLvBpdCo808l0MTNkFU2YYSGsah/Dx53bcjTu2tj7qfZj2nlPrDW6Ch1Y4SxzlPw5ULoN2ZhIBtdWxcks0i1ISGsfmjp6b9J9rHI8Uh1NhnU9r8KXUpMOyylHICaCYetBE99vQ1eQ+VMz9DAVZ5Z0ofBl3e/yoxnZdYpStS4qgvnIu8ncjmx2Y9p5T6wBkX8hDHCmNNhjH5jtgkrFtcvzDXLf2EhSV54k5wda6VdRtgLe9phKe0AFBUolw3UjQndwDeiPYpuiSLHa5X7wkkQa2QJu9mvm1aWxZv9mHaX3jsrjGW+VDnGqBPGTGNHJZoPKA02cI17ka0NSmGBTF586x6n1GhbhhZfDNe0ZcgiLKUcgEIbpp5qosasTviMPHop4rls9ritVdfS4G7cqF8M9PtHNclt8mNauQ+sZWBHpZrI5ccZecKYMYePTEoBPweGo6nf8C9944MNBbJmZijC6od09/469xVW8B1VFxX3eKLq1Bquu0q7yD7BANRu77NGDuVu6j7KB6u3cvJC1K7MsPuIqlGLC3rNfEwr94G1duwwMlE1wsgTxkzzYnaMLvzpkxf2JSmeDoJBI4GsmbqvqPohua+Fcu3QmiAWPBb5d1nKqv3/qJm20MBVPrKp0UCZdlhKOwDpw9Gvzn7ZNG52qHIgfTNNgOVjor5mwsa1J2JJNGzZttWPaeU+sBZF/ISxTlTw4SIo4E+fLkQuv8hVQlLUTjEdlJpcGoyqH9JhKQhcUtCta4ekjuir71lVyF0byKJm2nT9Uflj5TFWzqiMClNhL+xph6UsAlCjuyojg1sD4bPZa5D70m1Gxj8Te1B85fFLeIu6lrB+Y3oGLviY6qAuXydxGzua/ZhW7gNrUcTvhl6GgDBWiwPD06UbttbMPklI0cuEQaiRehn57b9YXg6MmzWLW46S5SoJS2EfH7lTriqQVZq4Vmbawnbe6SXLiDAhOztrQ6RcT/WOz7bCUs3n1mGpZjdpJQDVPkb5e9zYRQagt7cf3NY8luDzxj6WmJ5s9YJWZeer3kl5qvS1VLk/2fHac8Nvr/r88nVXO/56rEIeQ+XA+76IPniRAauJj2nlPlAbxrarQ4cez/IudzPqhDHTpoLbfT5cyPHjx001DfReXCNO3a6i3H6gkRequKUo3cX/tq80XJe2JpAd+l3V/6HvrtTvhIXI2BkXCZTlF/+owJRFWEo7AFV2d+rPtz4+HFWK6xt531XBOggjrTyHtaGsJRfP8U3rMENF/COHj0wWGH3CmCkeHRg+z7OZEqmF0f2e2twV1tNAgXOlfmjxyCeavj/5/NXBo7Lk1UjjzcqLf20Yi2r+mmZYSjsAyeeXEwjSDEVZLc212m4E9jJUxC9LlYQxwpgZcmB48BuBF9cyMz1t6pvYe5VaGJmxavWFLqqFRVwgW2qig7ksS4bVism/y4yXHEQd1++qUgwe1oQ27FrSDEu2ByCbFJkF89LQ0FDW5ScSxg4y8oQxk+RX5K2uXwRF/OkHsv4PfKt0xEuTZ+7p5ce9X6hbL1R7fxKQKvVDcotq1dD7G/8+dvlT/q8/uOkWFj//8Urt2UqNWdXj0vVmdWbwCEvpkee5mXGiu72fpOQk4zA2zqgTxkwr+BHGKOLP5BtQdodt/63SGYHH/67uzIS8sEqoaiaI1QY5PesV3PSs3IXSkUr6mKGNb2iqYaienWuxwSgyCGLSx27qE/prqtGeXc3UBMKlMDaqjh07luVdsqOSMGbclPJgN8lxuvBnRs90yW6x4LZSSya1VuUlTFkW1IXuIYdyt6OVxqBwR6VFiMy8StDXS8wxM56c++ivsR1BNvryI1ne5caJXH5TuRk6CGNGePHFNz9PAb8J8mLZTLNOIDKMVbX+0L3svvlB/bUlh85XlpT1podz/6ybCkeeYkCTVecNDg6YuNsd5ckJEMaM8OaMSunETxE/4GAQi+icv9xg25RqXSxFO89Qm6JxwlgTv4gzBISxKBTxA46GsRYPcw8LYo3siAVCUDdGGDPHpzXyWcIY4CR9rmMCy91h51XCTWNjma9yEMYIY8Yd9eEijh8/wTMJOKhyNmU7O291yxFmxdC6rQwBYcy0gg8XMTc3xzMJOExaWkg/OwlWjYYyzoNEUiZy+XFGocHvVYaAMBZlZmaGZxJwXHXrFOk9ppv1ltteSDG/hC85nF63T9myK/EWKuho7KgkjBnlVRH/8PAwzyjggZVlxwabwMIfhn65pm6sQSxTpqPgTxijEz8AuMxgyQlhjDBmjhwY7su1nKATPwA4TXpGGkKjSsKYcc/zGxUAwLRjTzxh7L4ncnlmxwhjRhX4jQoAYJLU/R469LjJh0AYI4yZzTE+XAQzYwDgrs//jy+YfgiEMcKYUQUfLuLECRq/AoCL/ut/+a/q2LFjhDHCWEfzpoj/OEX8AOAMWdGQIGZ4ebJiN88IYcykgj9hjNkxAHDBY48dUnd/9GO2BDFtIpcf4ZmJR9PXlBw+MlkIvgC9uJZSe4s9PKkAYBmZBZONVrJj8oknjqn5+XkbH6YsVRZ4tghjpsiB4c5P0bKjEgCyI6Uhc3Pzob8YS/iSm6xYyE7J2VknGnNLGDvIM0sYM+WsDxchRfzyzT84OMgzCsB7EnLiTh+phKLoMHWizv8ft3UGKy3jfFURxkySIv7bfLgQmf7eu5elSgDZqMz+xAWm2eAW+cM3ZkZfPjc7xTPFjkrCmPEw5oVjhDGgc3+QxQSbuFmieoGqA2eIOtXGiVx+0+Ejk2cZCsKYCd584UmvGvlNdHh4mGcVMKReuJmZno4JPtFLZw7VHsFdMjs2xTCE6yoWi4xCioLfBrwZ4D17blV/+h/+lCcVWAk44YXWKwEnYhktriaJYARPferwkcn7GYZwzIylTw4M3+rDhUjfmrv23cXsGKxVN+REhKO4WSOW0oBEUDdGGDOq4EsYE//pP35SPfjQF3lW0bC42aOoZbW45TiKrwEnjTAEhDGT5NXGm+Mg5EVQjtlgudJtcTNIUQXZcQGJpTUAdYwxBIQxk7zbPVI5ZuP3/q/fo/dYwqJmkfRsUMQZoXFLbDMzNOwFYIeJXH788JHJKUaCMGaCfOHd52MgkxAggWzHDv9/4YmbSYpaaosKSSyzAehQ7KgkjBlT8PXCJFD80b1/pMbGxtSevXvUrl07jcyURc0mRRVsxy23UawNAKkZYQjC0doiAz61t6hndHRUbd8+qndcDgW3qJ2XrQQlltwAwGlHDx+ZHGcY1mJmLBuSIjqieFFmy1iCAwCEoL1FhG6GIBMFhgAA0OH0sUgMA2HMlGmGAAAAZscIY+YUGAIAACjiJ4wRxgAAIIwRxjoPTe4AANCoGSOMGXWOIQAAdDhqxghjRlHEDwAACGOEMQAAQBjrTGcZAgAAQBgzZ4ohAAAAhDFzCgwBAAAgjBly+MgkYQwA0Ol4LSSMGTfDEAAAOtgUQ0AYM40ifgAAYQyEMb4IAQDI3Jcp2SGM2YBeYwCATvR8cLuHYSCM2YDfCAAAnUbqpW8/fGSSUp0IXcVikVHI0EQuz4ADADqBnMm8X24EsXi9DEHmjga33QwDAMBT3whuB+VGCCOM2WqKMAYA8MDRqte1QnCbDsIXtdGEMSfwhQoAsMG5kNck+Xv1bNbZmveZZraLMEYYAwB0upk6gUkUVM2msSBETTF0dqKA34CJXF6+cTYyEgDQMRqZhRK1galAby7/MTNmhnwDUjcGAPY7WvP3s42EKmahQBgjjAFAJ2tpGU9RDwXCWEcpMAQAEBugxFTN30NDFct4IIyhFRTxAyBAASCMAQABigAFmMZuSkM4FgkAAQqAYGYMAAhQAAhjAECAAkAYQ7Y4MBxoPywV1OrdybV/P1s5K28ilx8nQAEgjEHVvGgQxtBJwjqQT9X8vbZ5ZmJ9n2jCCYAwBhXyInQXwwBHPK/W9serF6SYeQIAwpj1YQxI09EGv+7W/BuzSACQHVpbGDSRyx8M3tzGSECFzzyFFYoTngDAM8yMmbWfMOakc42GJBVygLBi+Q4AUIWZMcMmcnkJZH/ISKTqaKMhSYXMTlV24wEAQBjzN5A9rCjmrwibdTrb4L+xXAcAIIyh5UDm6gxZo+GpoJh1AgCAMGZ5IBsJ3twf3G4PbhtTvKuwYvGwZbup2g9k5gkAAMJYpwSz8eCN3DYFtx0R7xY2A7UmVBGgAAAgjAGA6V9wRoI3I7W/vCTV4R8AWkVrCwC2hKXxiP+SmeFNIf8eFq4q/761wbu9kpEHYBozYwAaDUtR4ScsRMUtr1tzJuvhI5NdPLMATGNmDPA7QNUGpbBANW5zYErRUb5CABDGANQLU7UzTLVLdtVBSv59jFEDAMIYgPoha0c5WI2EhCz5t62MUuqmGAIAhDGg80LYvuDNPYoZLAAAYQzINISNBG8eVp1Ri+WKKYYAgA26GQIg9SAmJypME8QAAGFobQGkG8T2BW/+ipGwD20tANiCmTGAIAYAIIwBBDFkih5jAAhjgMdBbJwgBgAgjAFmgpj0CjvISFhvmiEAQBgD/PRwcNvIMFjvLEMAgDAGeKa8PHkbI+EEZsYAEMYADz3MEDiDmTEAhDHAJ+VZMc6TdEeBIQBAGAP8so8hcMfhI5OEMQCEMcAz4wyBM84xBAAIY4BHyu0sWKJ0B8X7AAhjgGd2MAQAAMIYYM44Q+AUZsYAEMYAzzAz5hbaWgAgjAGEMRDGAIAwBiSF4n23sEwJgDAG+KLc7BUAAMIYYAhLlO5hZgwAYQwgjMGUw0cmqRkDQBgDCGMwhO77AAhjgGfGGAKnsEQJgDAG+ILifQAAYQwwa4QhcE6BIQBAGAP8Qb0YYQwACGMAYQwAQBgDOtNuhsA5FPADIIwBPpjI5UcYBSfRYwwAYQzwBEuUAADCGEAYQzMOH5mcYhQAEMYAwhgAAIQxoE0jDAEAgDAGmMMxSO45yhAAIIwBHpjI5VmiBAAQxgCDRhgCAABhDDCHmTE30fAVAGEMIIzBIBq+AiCMAZ4YYQgAAIQxwBx2UrqJmTEAhDHAdeykdBo1YwAIY4AHNjEEAADCGGDOOEMAACCMAeaMMATOKjAEAAhjAGEMhhw+MkkYA0AYAzxAAT8AgDAGGLSRIQAAEMYAAyZy+XFGwVnnGAIAhDHAfbS1cBc9xgAQxgAPUC8GACCMAQaNMAQAAMIYQBgDABDGAMIYAACEMSBbWxkCZ51lCAAQxgCHTeTyFO+7jd2UAAhjgONoawEAIIwBBjEzBgAgjAEGMTMGACCMAQYxMwYAIIwBBjEzRpgGAMIYwIs5CNMACGNAZ9rIEAAACGOAAfQY8wIzYwAIYwAv5DBojCEAQBgD3MXMmAcmcnlCNQDCGOAoXsQJ1QBAGAMMGmEICGMAQBgDCGMgjAEgjAGEMThrnCEAQBgD3LSVIfDjeZzI5QnWAAhjgEvYgeedcYYAAGEMcAt1Rn65nSEAQBgD3MLMmF9uY6kSAGEMcAszY/7ZxxAAIIwBhDGYcw+1gAAIY4A7RhgC72yUQMYwALBFV7FYZBSAEOXZk5cZCW/9xuEjk9MMAwDTmBkDoo0zBF57mCEAQBgD7EYbBL+NTeTyBDIAhDGAMAaD7goCGfVjAAhjgG2CF+h9qlToDf89EDzf9zMMAEyhgB8ID2MFxZmUnebLwe2ew0cmzzIUALLEzBiwNojdTxDrSHcFt+ng+R9nKABkiZkxYHUQ2xe8+StGouN9Q5VmyQoMBQDCGEAQgzlHg9v+IJQdZCgAEMaA9ELYiLzgBrfbGA1EOBfcJJBNyY0ZMwCEMSCZADauSu0rCGFo1vPBbbrqdjYIaFMMCwDjYax8fIwcrFx5a8o4T603CuVbu6q/JnczrEjR0YS/dgHYQ//yJW+T3HnddhgLApjMLNxeDkDsQAMAAJ1AZsingtvBdutKWwpj5SWefcFNOlfTGBMAAHQyqSt9WJU2/BRSDWPlZcj7g9sfMu4AAABrNN1AuuEwVl6OlNTHTBgAAEC0c+VA9nAiYaw8Gybb/u9ibAEAABomDaT31Zsliw1j5SA2FdzGGE8AAICmzQS38bhA1k0QAwAASI3kqEKQq3Y0FcYIYgAAAImRevuHy/mqsTBGEAMAAEjUWDlf1Q9jQWrbTxADAABIPpCVc9Yqqwr4g3cYD94cYawAAABSk6s+z7Z2Zmw/4wMAAJCqh6v/shLGJnL5fYrlSQAAgLRtDXLX/WvCmCodcwQAAID03bMqjJVnxbYyLgAAAJnYWM5fKzNjtzMmAAAAmdJhrCs3PiENyF5mPAAAADK3TWbGxhkHAAAAI8YJYwAAAIbD2A7GAQAAwIgRwhgAAIA5uyWMbWQcAAAAzOhmCAAAAAhjAAAAhDEAAAAQxgAAAAhjAAAAyCaMPc8wAAAAGHFOwtg04wAAAGDEtISxKcYBAADAiCnCGAAAgMEw1lUsFtVELl8I/rKV8QAAAMjMucNHJjdVdlMeZDwAAAAypfNXJYztZzwAAAAytX8ljB0+MlkI3nyZMQEAAMjE0SB/Ta+EsbL7GRcAAIBMrOSulTDG7BgAAEAmvhzkrqk1YazsnuB2jjECAABIxbly3lKhYSxIaWeDN/sYJwAAgFTcXs5b4WGsHMhkm+V/Z6wAAAASdW/18mSFbvoaZiKXfzh4cxfjBgAA0DapE9sX9h/dUR9R/gBmyAAAAFIKYiJyZqxiIpeXD/4rxhEAAKBp/y4IYg/HvUPdMFYOZDtUqWU/51cCAADU93xw2xdWI1aru5HPVu4QK4HsU4wtAABALCnz2tFIEBMNzYxVm8jlR1SpayzF/QAAAK+R5vn3lxvpN6zpMFYTyvaVbyxfAgCATiTLkVLKtb/ZENZ2GAsJZrer0lKm/Hk3zw0AAPDQ0eAmoUtKuKYqh3234/8XYACbuMPK5rzxBwAAAABJRU5ErkJggg==;" vertex="1" parent="1">
          <mxGeometry x="270" y="210" width="91.48" height="81" as="geometry" />
        </mxCell>
        <mxCell id="t6ijT9f5Qi8HSw9unxHg-22" value="" style="shape=image;verticalLabelPosition=bottom;labelBackgroundColor=default;verticalAlign=top;aspect=fixed;imageAspect=0;image=https://cdn-icons-png.flaticon.com/512/2861/2861364.png;" vertex="1" parent="1">
          <mxGeometry x="270" y="105" width="90" height="90" as="geometry" />
        </mxCell>
        <mxCell id="t6ijT9f5Qi8HSw9unxHg-23" value="&lt;font style=&quot;font-size: 18px;&quot;&gt;Aktywne zbieranie informacji&lt;/font&gt;" style="text;strokeColor=none;fillColor=none;html=1;fontSize=24;fontStyle=1;verticalAlign=middle;align=center;" vertex="1" parent="1">
          <mxGeometry x="440" y="130" width="100" height="40" as="geometry" />
        </mxCell>
        <mxCell id="t6ijT9f5Qi8HSw9unxHg-24" value="&lt;span style=&quot;font-size: 18px;&quot;&gt;Skanowanie przestrzeni&amp;nbsp;&lt;/span&gt;&lt;div&gt;&lt;span style=&quot;font-size: 18px; background-color: initial;&quot;&gt;adresowej&amp;nbsp;&lt;/span&gt;&lt;span style=&quot;background-color: initial; font-size: 18px;&quot;&gt;sieci&lt;/span&gt;&lt;/div&gt;" style="text;strokeColor=none;fillColor=none;html=1;fontSize=24;fontStyle=1;verticalAlign=middle;align=center;" vertex="1" parent="1">
          <mxGeometry x="252.5" y="230" width="475" height="40" as="geometry" />
        </mxCell>
        <mxCell id="t6ijT9f5Qi8HSw9unxHg-25" value="" style="rounded=1;whiteSpace=wrap;html=1;fillColor=#fff2cc;strokeColor=#d6b656;" vertex="1" parent="1">
          <mxGeometry x="270" y="410" width="350" height="80" as="geometry" />
        </mxCell>
        <mxCell id="t6ijT9f5Qi8HSw9unxHg-33" value="" style="rounded=1;whiteSpace=wrap;html=1;fillColor=#fff2cc;strokeColor=#d6b656;" vertex="1" parent="1">
          <mxGeometry x="270" y="510" width="350" height="80" as="geometry" />
        </mxCell>
        <mxCell id="t6ijT9f5Qi8HSw9unxHg-39" value="" style="shape=image;verticalLabelPosition=bottom;labelBackgroundColor=default;verticalAlign=top;aspect=fixed;imageAspect=0;image=https://cdn-icons-png.flaticon.com/512/2172/2172894.png;" vertex="1" parent="1">
          <mxGeometry x="270" y="390" width="106" height="106" as="geometry" />
        </mxCell>
        <mxCell id="t6ijT9f5Qi8HSw9unxHg-40" value="&lt;font style=&quot;font-size: 18px;&quot;&gt;Identyfikacja systemu&amp;nbsp;&lt;/font&gt;&lt;div&gt;&lt;font style=&quot;font-size: 18px;&quot;&gt;operacyjnego&lt;/font&gt;&lt;/div&gt;" style="text;strokeColor=none;fillColor=none;html=1;fontSize=24;fontStyle=1;verticalAlign=middle;align=center;" vertex="1" parent="1">
          <mxGeometry x="440" y="430" width="100" height="40" as="geometry" />
        </mxCell>
        <mxCell id="t6ijT9f5Qi8HSw9unxHg-42" value="" style="rounded=1;whiteSpace=wrap;html=1;fillColor=#fff2cc;strokeColor=#d6b656;" vertex="1" parent="1">
          <mxGeometry x="270" y="310" width="350" height="80" as="geometry" />
        </mxCell>
        <mxCell id="t6ijT9f5Qi8HSw9unxHg-45" value="" style="shape=image;verticalLabelPosition=bottom;labelBackgroundColor=default;verticalAlign=top;aspect=fixed;imageAspect=0;image=https://static.thenounproject.com/png/3683631-200.png;" vertex="1" parent="1">
          <mxGeometry x="273" y="500" width="100" height="100" as="geometry" />
        </mxCell>
        <mxCell id="t6ijT9f5Qi8HSw9unxHg-46" value="&lt;font style=&quot;font-size: 18px;&quot;&gt;Enumeracja&amp;nbsp;&lt;/font&gt;&lt;div&gt;&lt;font style=&quot;font-size: 18px;&quot;&gt;(wykrywanie kont, usług&lt;/font&gt;&lt;/div&gt;&lt;div&gt;&lt;font style=&quot;font-size: 18px;&quot;&gt;zasobów)&lt;/font&gt;&lt;/div&gt;" style="text;strokeColor=none;fillColor=none;html=1;fontSize=24;fontStyle=1;verticalAlign=middle;align=center;" vertex="1" parent="1">
          <mxGeometry x="440" y="530" width="100" height="40" as="geometry" />
        </mxCell>
        <mxCell id="t6ijT9f5Qi8HSw9unxHg-48" value="" style="shape=image;verticalLabelPosition=bottom;labelBackgroundColor=default;verticalAlign=top;aspect=fixed;imageAspect=0;image=https://www.att.com/ecms/dam/att/consumer/support/landingpage/ipv6/300349-1up-feature-IPv6-basicl-545x312.png;" vertex="1" parent="1">
          <mxGeometry x="233.14" y="306" width="153.72" height="88" as="geometry" />
        </mxCell>
        <mxCell id="t6ijT9f5Qi8HSw9unxHg-49" value="&lt;font style=&quot;font-size: 18px;&quot;&gt;Skanowanie portów&amp;nbsp;&lt;/font&gt;&lt;div&gt;&lt;font style=&quot;font-size: 18px;&quot;&gt;urządzeń sieciowych&lt;/font&gt;&lt;/div&gt;" style="text;strokeColor=none;fillColor=none;html=1;fontSize=24;fontStyle=1;verticalAlign=middle;align=center;" vertex="1" parent="1">
          <mxGeometry x="440" y="330" width="100" height="40" as="geometry" />
        </mxCell>
      </root>
    </mxGraphModel>
  </diagram>
</mxfile>
